<svg width="144" height="64" viewBox="0 0 144 64" fill="none" xmlns="http://www.w3.org/2000/svg">
<circle cx="32" cy="32" r="32" fill="#2F80ED"/>
<path d="M7 47.9997C32.5 50.5 28.5 11.5 37.5 11.5C46.5 11.5 44.5 47.9998 57 47.9997" stroke="white" stroke-width="3" stroke-linecap="round" stroke-linejoin="round"/>
<path d="M77.888 39.364C76.8053 39.364 75.7693 39.2427 74.78 39C73.8093 38.7573 72.9693 38.4307 72.26 38.02L72.596 34.268C73.436 34.7907 74.3133 35.2013 75.228 35.5C76.1613 35.78 77.02 35.92 77.804 35.92C78.7 35.92 79.428 35.7333 79.988 35.36C80.548 34.9867 80.828 34.492 80.828 33.876C80.828 33.372 80.6413 32.9893 80.268 32.728C79.8947 32.448 79.3067 32.1493 78.504 31.832L77.832 31.552C77.7387 31.5147 77.636 31.4773 77.524 31.44C77.412 31.384 77.2813 31.328 77.132 31.272C76.0867 30.8427 75.2467 30.4413 74.612 30.068C73.9773 29.676 73.4267 29.1347 72.96 28.444C72.512 27.7533 72.288 26.8573 72.288 25.756C72.288 23.964 72.8947 22.5547 74.108 21.528C75.3213 20.5013 77.0107 19.988 79.176 19.988C80.8187 19.988 82.4987 20.324 84.216 20.996L83.6 24.692C82.9093 24.3 82.1627 23.992 81.36 23.768C80.576 23.544 79.8293 23.432 79.12 23.432C78.2427 23.432 77.5613 23.6093 77.076 23.964C76.5907 24.3 76.348 24.7573 76.348 25.336C76.348 25.84 76.516 26.232 76.852 26.512C77.188 26.792 77.7293 27.0907 78.476 27.408L79.624 27.856C80.7067 28.2667 81.6027 28.668 82.312 29.06C83.0213 29.452 83.628 30.0213 84.132 30.768C84.636 31.496 84.888 32.448 84.888 33.624C84.888 35.4347 84.272 36.844 83.04 37.852C81.808 38.86 80.0907 39.364 77.888 39.364ZM87.9684 24.58H91.8044L91.7204 26.456H91.8324C92.3178 25.7093 92.9058 25.14 93.5964 24.748C94.3058 24.356 95.1084 24.16 96.0044 24.16C97.6284 24.16 98.8978 24.7853 99.8124 26.036C100.746 27.268 101.212 28.9947 101.212 31.216C101.212 33.848 100.522 35.8733 99.1404 37.292C97.7778 38.692 95.8271 39.392 93.2884 39.392C92.9711 39.392 92.4951 39.3733 91.8604 39.336V45.104H87.9684V24.58ZM93.6804 35.948C94.8564 35.948 95.7431 35.5653 96.3404 34.8C96.9564 34.0347 97.2644 32.9147 97.2644 31.44C97.2644 30.2453 97.0684 29.312 96.6764 28.64C96.3031 27.9493 95.7804 27.604 95.1084 27.604C94.5111 27.604 93.9324 27.8653 93.3724 28.388C92.8124 28.892 92.3084 29.62 91.8604 30.572V35.696C92.4951 35.864 93.1018 35.948 93.6804 35.948ZM105.672 18.56H110.18V22.2H105.672V18.56ZM103.488 35.612H106.176V27.968H103.488V24.58H110.124V35.612H112.532V39H103.488V35.612ZM119.096 32.728V39H115.148V18.532H119.096V29.844L123.604 24.58H128.28L122.512 31.048L128.588 38.832L124.304 39.42L119.096 32.728ZM136.663 39.42C134.33 39.42 132.491 38.748 131.147 37.404C129.822 36.06 129.159 34.1933 129.159 31.804C129.159 30.2547 129.448 28.9107 130.027 27.772C130.606 26.6147 131.418 25.728 132.463 25.112C133.527 24.496 134.768 24.188 136.187 24.188C138.278 24.188 139.883 24.86 141.003 26.204C142.123 27.548 142.683 29.4893 142.683 32.028C142.683 32.4573 142.674 32.7747 142.655 32.98H133.135C133.322 33.9693 133.751 34.7253 134.423 35.248C135.095 35.752 136 36.004 137.139 36.004C137.83 36.004 138.548 35.92 139.295 35.752C140.042 35.5653 140.695 35.3227 141.255 35.024L141.899 38.188C141.152 38.58 140.322 38.8787 139.407 39.084C138.511 39.308 137.596 39.42 136.663 39.42ZM138.903 30.012C138.847 29.2093 138.567 28.5747 138.063 28.108C137.559 27.6227 136.887 27.38 136.047 27.38C135.244 27.38 134.582 27.6133 134.059 28.08C133.555 28.5467 133.238 29.1907 133.107 30.012H138.903Z" fill="black"/>
</svg>
